<svg width="512" height="512" viewBox="0 0 24 24" fill="none" xmlns="http://www.w3.org/2000/svg">
  <path
    d="M12 3C8.68629 3 6 5.68629 6 9V17C6 17.5523 6.44772 18 7 18C7.55228 18 8 17.5523 8 17V16C8 15.4477 8.44772 15 9 15C9.55228 15 10 15.4477 10 16V17C10 17.5523 10.4477 18 11 18C11.5523 18 12 17.5523 12 17V16C12 15.4477 12.4477 15 13 15C13.5523 15 14 15.4477 14 16V17C14 17.5523 14.4477 18 15 18C15.5523 18 16 17.5523 16 17V16C16 15.4477 16.4477 15 17 15C17.5523 15 18 15.4477 18 16V17C18 17.5523 18.4477 18 19 18C19.5523 18 20 17.5523 20 17V9C20 5.68629 17.3137 3 14 3H12Z"
    fill="#6366f1"
    opacity="0.9"
  />
  <circle cx="9.5" cy="9.5" r="1.5" fill="white" />
  <circle cx="14.5" cy="9.5" r="1.5" fill="white" />
  <path
    d="M10 12C10 11.4477 10.4477 11 11 11H13C13.5523 11 14 11.4477 14 12C14 12.5523 13.5523 13 13 13H11C10.4477 13 10 12.5523 10 12Z"
    fill="white"
    opacity="0.6"
  />
</svg>